<?xml version="1.0" encoding="iso-8859-1"?>
<!-- Generator: Adobe Illustrator 21.0.0, SVG Export Plug-In . SVG Version: 6.00 Build 0)  -->
<svg version="1.1" id="Layer_1" xmlns="http://www.w3.org/2000/svg" xmlns:xlink="http://www.w3.org/1999/xlink" x="0px" y="0px"
	 viewBox="0 0 509 426.405" style="enable-background:new 0 0 509 426.405;" xml:space="preserve">
<path style="fill:#FFFFFF;" d="M500.905,52.265c-11.309,5.015-23.049,8.971-35.095,11.835c13.274-12.613,23.254-28.39,28.884-46l0,0
	c1.607-5.027-3.853-9.374-8.393-6.683l0,0c-16.758,9.94-34.81,17.397-53.654,22.167c-1.093,0.277-2.221,0.417-3.353,0.417
	c-3.433,0-6.77-1.274-9.394-3.588c-20.049-17.671-45.836-27.402-72.608-27.402c-11.585,0-23.281,1.806-34.765,5.367
	c-35.582,11.036-63.036,40.387-71.65,76.599c-3.232,13.583-4.106,27.178-2.602,40.407c0.173,1.52-0.546,2.581-0.989,3.079
	c-0.778,0.872-1.881,1.373-3.027,1.373c-0.128,0-0.259-0.006-0.39-0.019C155.98,122.581,85.745,85.057,36.099,24.159l0,0
	c-2.532-3.106-7.386-2.725-9.404,0.736l0,0c-9.722,16.679-14.86,35.756-14.86,55.167c0,29.749,11.952,57.784,32.713,78.222
	c-8.73-2.07-17.18-5.33-25.03-9.69l0,0c-3.797-2.11-8.47,0.602-8.523,4.945l0,0c-0.544,44.194,25.331,83.519,64.092,101.227
	c-0.781,0.019-1.561,0.027-2.343,0.027c-6.144,0-12.365-0.593-18.488-1.763l0,0c-4.276-0.817-7.869,3.24-6.541,7.386l0,0
	c12.581,39.279,46.401,68.231,86.872,74.805c-33.589,22.548-72.704,34.441-113.414,34.441l-12.692-0.007
	c-3.91,0-7.218,2.549-8.214,6.337c-0.982,3.73,0.827,7.666,4.161,9.605c45.875,26.698,98.201,40.808,151.345,40.808
	c46.519,0,90.033-9.232,129.335-27.437c36.03-16.69,67.869-40.548,94.632-70.912c24.932-28.285,44.428-60.937,57.945-97.047
	c12.885-34.421,19.696-71.15,19.696-106.215v-1.67c-0.001-5.63,2.545-10.928,6.988-14.535c16.859-13.688,31.54-29.801,43.633-47.891
	l0,0C511.195,55.921,506.159,49.934,500.905,52.265L500.905,52.265z"/>
</svg>
