<?xml version="1.0" encoding="utf-8"?>
<!-- Generator: Adobe Illustrator 21.0.0, SVG Export Plug-In . SVG Version: 6.00 Build 0)  -->
<svg version="1.1" id="Calque_1" xmlns="http://www.w3.org/2000/svg" xmlns:xlink="http://www.w3.org/1999/xlink" x="0px" y="0px"
	 viewBox="0 0 154.1 54.4" style="enable-background:new 0 0 154.1 54.4;" xml:space="preserve">
<style type="text/css">
	.st0{fill:#FFFFFF;}
</style>
<path class="st0" d="M31.3,36.3h-3V3c0-1.2,0.8-2.3,1.8-2.8c0.3-0.1,0.6-0.2,1-0.2l0.2,0.3v7L31.3,36.3z"/>
<path class="st0" d="M56.1,0.2v6.4V7l0,29.2h3V3c0-1.6-1.2-2.9-2.8-3c0,0-0.1,0-0.1,0L56.1,0.2z"/>
<path class="st0" d="M82.1,14.9v11.4c0,3.9-3.2,7-7,7h-9.7V21.9c0-3.9,3.2-7,7-7H82.1 M85.1,11.9H72.4c-5.5,0-10,4.5-10,10v14.4
	h12.7c5.5,0,10-4.5,10-10V11.9L85.1,11.9z"/>
<path class="st0" d="M130.1,14.9v11.4c0,3.9-3.2,7-7,7h-9.7V21.9c0-3.9,3.2-7,7-7H130.1 M133.1,11.9h-12.7c-5.5,0-10,4.5-10,10v14.4
	h12.7c5.5,0,10-4.5,10-10V11.9L133.1,11.9z"/>
<polygon class="st0" points="89.9,15 89.9,11.9 96.4,11.9 96.4,14.9 "/>
<path class="st0" d="M154.1,23.3v12.9h-3V23.3c0-4.7-3.8-8.4-8.4-8.4h-3.9v21.4h-3V11.9h6.9C148.9,11.9,154.1,17,154.1,23.3z"/>
<rect x="103.3" y="11.9" class="st0" width="3" height="24.4"/>
<path class="st0" d="M100.3,36.3H98c-5.4,0-9.9-4.4-9.9-9.9V5h3v21.4c0,3.8,3.1,6.9,6.9,6.9h2.3V36.3z"/>
<path class="st0" d="M56.3,0L56.3,0l-0.2,0.2L43.7,18.9L31.3,0.3L31.1,0c-0.3,0-0.7,0.1-1,0.2v4.9l1.1,1.6l0.1,0.2l12.3,18.1h0.2
	l9.9-14.5l2.5-3.7l1.3-1.9L56.3,0z"/>
<path class="st0" d="M15.5,33.8c-6.6,0.7-12-4.5-12-10.1c0-5.5,4.3-10.5,12.1-11.2c0.2,0,0.4,0,0.6-0.1c-1.3-0.5-2.7-0.7-4.2-0.7
	C5.3,11.7,0,17.3,0,24.1s5.3,12.2,11.9,12.1c4.6-0.1,8.6-2.8,10.6-6.8C20.8,31.2,18,33.5,15.5,33.8z"/>
<path class="st0" d="M25.6,12.6c-0.4-2.3-4.5-5-9.6-4.2c-1.6,0.3-3.2,0.7-4.5,1.3c4.8-0.5,8.2,1,8.5,3.4c0.3,3.5-7.3,5.5-12,5.9
	c0.9,0.2,7,0.6,9.5,0.3C23.4,18.5,26,14.7,25.6,12.6z"/>
<g>
	<path class="st0" d="M1.2,45.7h1v7.6H7v0.9H1.2V45.7z"/>
	<path class="st0" d="M11.9,45.7h0.9l3.9,8.6h-1l-1-2.3H10l-1,2.3H8L11.9,45.7z M14.3,51.1l-1.9-4.3l-1.9,4.3H14.3z"/>
	<path class="st0" d="M22,45.7h1v7.6h4.8v0.9H22V45.7z"/>
	<path class="st0" d="M33.5,54.4c-0.7,0-1.2-0.1-1.8-0.4c-0.5-0.2-1-0.6-1.4-1c-0.4-0.4-0.7-0.9-0.9-1.4c-0.2-0.5-0.3-1.1-0.3-1.7v0
		c0-0.6,0.1-1.1,0.3-1.7c0.2-0.5,0.5-1,0.9-1.4c0.4-0.4,0.8-0.7,1.4-1c0.5-0.2,1.1-0.4,1.8-0.4c0.7,0,1.2,0.1,1.8,0.4
		c0.5,0.2,1,0.6,1.4,1c0.4,0.4,0.7,0.9,0.9,1.4c0.2,0.5,0.3,1.1,0.3,1.7c0,0,0,0,0,0c0,0.6-0.1,1.1-0.3,1.7c-0.2,0.5-0.5,1-0.9,1.4
		c-0.4,0.4-0.8,0.7-1.4,1C34.8,54.3,34.2,54.4,33.5,54.4z M33.5,53.5c0.5,0,0.9-0.1,1.3-0.3c0.4-0.2,0.8-0.4,1.1-0.7
		s0.5-0.7,0.7-1.1c0.2-0.4,0.2-0.9,0.2-1.4v0c0-0.5-0.1-0.9-0.2-1.4c-0.2-0.4-0.4-0.8-0.7-1.1c-0.3-0.3-0.7-0.6-1.1-0.8
		c-0.4-0.2-0.9-0.3-1.3-0.3c-0.5,0-0.9,0.1-1.3,0.3c-0.4,0.2-0.8,0.4-1.1,0.7s-0.5,0.7-0.7,1.1c-0.2,0.4-0.2,0.9-0.2,1.4v0
		c0,0.5,0.1,0.9,0.2,1.4c0.2,0.4,0.4,0.8,0.7,1.1c0.3,0.3,0.7,0.6,1.1,0.8C32.6,53.4,33.1,53.5,33.5,53.5z"/>
	<path class="st0" d="M43.8,54.4c-0.6,0-1.2-0.1-1.7-0.3c-0.5-0.2-1-0.5-1.4-0.9c-0.4-0.4-0.7-0.9-0.9-1.4c-0.2-0.5-0.3-1.1-0.3-1.7
		v0c0-0.6,0.1-1.2,0.3-1.7c0.2-0.5,0.5-1,0.9-1.4c0.4-0.4,0.8-0.7,1.4-1c0.5-0.2,1.1-0.3,1.7-0.3c0.4,0,0.7,0,1.1,0.1
		c0.3,0.1,0.6,0.2,0.9,0.3c0.3,0.1,0.5,0.3,0.7,0.4c0.2,0.2,0.4,0.4,0.7,0.6l-0.7,0.7c-0.4-0.3-0.8-0.6-1.2-0.8s-0.9-0.3-1.5-0.3
		c-0.5,0-0.9,0.1-1.3,0.3c-0.4,0.2-0.8,0.4-1,0.7c-0.3,0.3-0.5,0.7-0.7,1.1c-0.2,0.4-0.2,0.9-0.2,1.4v0c0,0.5,0.1,1,0.2,1.4
		c0.2,0.4,0.4,0.8,0.7,1.1c0.3,0.3,0.6,0.6,1,0.7c0.4,0.2,0.8,0.3,1.3,0.3c0.6,0,1.1-0.1,1.5-0.3c0.4-0.2,0.8-0.5,1.2-0.9l0.6,0.6
		c-0.2,0.2-0.4,0.4-0.7,0.6c-0.2,0.2-0.5,0.3-0.8,0.5c-0.3,0.1-0.6,0.2-0.9,0.3C44.5,54.4,44.2,54.4,43.8,54.4z"/>
	<path class="st0" d="M52,45.7h0.9l3.9,8.6h-1l-1-2.3h-4.6l-1,2.3h-1L52,45.7z M54.4,51.1l-1.9-4.3l-1.9,4.3H54.4z"/>
	<path class="st0" d="M60.8,46.6h-2.9v-0.9h6.7v0.9h-2.9v7.6h-1V46.6z"/>
	<path class="st0" d="M66.5,45.7h1v8.5h-1V45.7z"/>
	<path class="st0" d="M73.9,54.4c-0.7,0-1.2-0.1-1.8-0.4c-0.5-0.2-1-0.6-1.4-1c-0.4-0.4-0.7-0.9-0.9-1.4c-0.2-0.5-0.3-1.1-0.3-1.7v0
		c0-0.6,0.1-1.1,0.3-1.7c0.2-0.5,0.5-1,0.9-1.4c0.4-0.4,0.8-0.7,1.4-1c0.5-0.2,1.1-0.4,1.8-0.4c0.7,0,1.2,0.1,1.8,0.4
		c0.5,0.2,1,0.6,1.4,1c0.4,0.4,0.7,0.9,0.9,1.4c0.2,0.5,0.3,1.1,0.3,1.7c0,0,0,0,0,0c0,0.6-0.1,1.1-0.3,1.7c-0.2,0.5-0.5,1-0.9,1.4
		c-0.4,0.4-0.8,0.7-1.4,1C75.2,54.3,74.6,54.4,73.9,54.4z M73.9,53.5c0.5,0,0.9-0.1,1.3-0.3c0.4-0.2,0.8-0.4,1.1-0.7
		s0.5-0.7,0.7-1.1c0.2-0.4,0.2-0.9,0.2-1.4v0c0-0.5-0.1-0.9-0.2-1.4c-0.2-0.4-0.4-0.8-0.7-1.1c-0.3-0.3-0.7-0.6-1.1-0.8
		c-0.4-0.2-0.9-0.3-1.3-0.3c-0.5,0-0.9,0.1-1.3,0.3c-0.4,0.2-0.8,0.4-1.1,0.7s-0.5,0.7-0.7,1.1c-0.2,0.4-0.2,0.9-0.2,1.4v0
		c0,0.5,0.1,0.9,0.2,1.4c0.2,0.4,0.4,0.8,0.7,1.1c0.3,0.3,0.7,0.6,1.1,0.8C73,53.4,73.4,53.5,73.9,53.5z"/>
	<path class="st0" d="M80.3,45.7h0.9l5.4,6.8v-6.8h0.9v8.5h-0.8l-5.5-7v7h-0.9V45.7z"/>
	<path class="st0" d="M93.6,45.7h3c0.7,0,1.3,0.1,1.8,0.3c0.6,0.2,1,0.5,1.4,0.9c0.4,0.4,0.7,0.8,0.9,1.3c0.2,0.5,0.3,1.1,0.3,1.7v0
		c0,0.6-0.1,1.2-0.3,1.7c-0.2,0.5-0.5,1-0.9,1.4c-0.4,0.4-0.9,0.7-1.4,0.9c-0.6,0.2-1.2,0.3-1.8,0.3h-3V45.7z M96.5,53.4
		c0.5,0,1-0.1,1.5-0.3c0.4-0.2,0.8-0.4,1.1-0.7c0.3-0.3,0.5-0.7,0.7-1.1c0.2-0.4,0.2-0.9,0.2-1.3v0c0-0.5-0.1-0.9-0.2-1.3
		c-0.2-0.4-0.4-0.8-0.7-1.1c-0.3-0.3-0.7-0.5-1.1-0.7s-0.9-0.3-1.5-0.3h-2v6.7H96.5z"/>
	<path class="st0" d="M106.5,54.4c-0.5,0-1-0.1-1.4-0.2c-0.4-0.2-0.8-0.4-1.1-0.7s-0.6-0.7-0.7-1.2c-0.2-0.5-0.3-1-0.3-1.6v-5h1v4.9
		c0,0.9,0.2,1.6,0.7,2.1s1.1,0.7,1.9,0.7c0.8,0,1.4-0.2,1.9-0.7c0.5-0.5,0.7-1.2,0.7-2.1v-5h1v4.9c0,0.6-0.1,1.2-0.3,1.6
		c-0.2,0.5-0.4,0.9-0.7,1.2c-0.3,0.3-0.7,0.6-1.1,0.7C107.5,54.3,107,54.4,106.5,54.4z"/>
	<path class="st0" d="M112.3,45.7h3.7c0.5,0,1,0.1,1.4,0.2c0.4,0.2,0.7,0.4,1,0.6c0.2,0.2,0.4,0.5,0.5,0.7c0.1,0.3,0.2,0.6,0.2,0.9
		v0c0,0.4-0.1,0.7-0.2,1c-0.1,0.3-0.3,0.5-0.5,0.7s-0.5,0.4-0.7,0.5c-0.3,0.1-0.6,0.2-0.9,0.3l2.6,3.5h-1.2l-2.5-3.3h0h-2.4v3.3h-1
		V45.7z M115.9,50.1c0.3,0,0.6,0,0.9-0.1s0.5-0.2,0.7-0.3c0.2-0.1,0.3-0.3,0.5-0.5c0.1-0.2,0.2-0.5,0.2-0.7v0c0-0.5-0.2-0.9-0.6-1.2
		c-0.4-0.3-0.9-0.4-1.6-0.4h-2.6v3.5H115.9z"/>
	<path class="st0" d="M124.3,45.7h0.9l3.9,8.6h-1l-1-2.3h-4.6l-1,2.3h-1L124.3,45.7z M126.7,51.1l-1.9-4.3l-1.9,4.3H126.7z"/>
	<path class="st0" d="M130.8,45.7h3.6c0.5,0,0.9,0.1,1.3,0.2s0.7,0.3,0.9,0.6c0.4,0.4,0.5,0.8,0.5,1.4v0c0,0.3,0,0.5-0.1,0.7
		c-0.1,0.2-0.2,0.4-0.3,0.6s-0.3,0.3-0.4,0.4c-0.2,0.1-0.3,0.2-0.5,0.3c0.3,0.1,0.5,0.2,0.7,0.3c0.2,0.1,0.4,0.3,0.6,0.4
		c0.2,0.2,0.3,0.4,0.4,0.6c0.1,0.2,0.1,0.5,0.1,0.8v0c0,0.4-0.1,0.7-0.2,1c-0.1,0.3-0.4,0.5-0.6,0.7s-0.6,0.4-1,0.5
		c-0.4,0.1-0.8,0.2-1.3,0.2h-3.8V45.7z M134.2,49.5c0.6,0,1.1-0.1,1.4-0.4s0.5-0.6,0.5-1.1v0c0-0.4-0.2-0.8-0.5-1s-0.8-0.4-1.4-0.4
		h-2.6v2.9H134.2z M134.6,53.4c0.6,0,1.2-0.1,1.5-0.4c0.4-0.3,0.6-0.6,0.6-1.1v0c0-0.5-0.2-0.8-0.6-1.1s-0.9-0.4-1.7-0.4h-2.7v3
		H134.6z"/>
	<path class="st0" d="M139.6,45.7h1v7.6h4.8v0.9h-5.8V45.7z"/>
	<path class="st0" d="M147.1,45.7h6.2v0.9h-5.2v2.9h4.7v0.9h-4.7v3h5.3v0.9h-6.2V45.7z"/>
</g>
</svg>
