<?xml version="1.0" encoding="utf-8"?>
<!-- Generator: Adobe Illustrator 21.0.0, SVG Export Plug-In . SVG Version: 6.00 Build 0)  -->
<svg version="1.1" id="Calque_1" xmlns="http://www.w3.org/2000/svg" xmlns:xlink="http://www.w3.org/1999/xlink" x="0px" y="0px"
	 viewBox="0 0 1700.79 1700.79" enable-background="new 0 0 1700.79 1700.79" xml:space="preserve">
<g>
	<g>
		<path fill="#000000" d="M883.226,362.045l117.314,364.079l382.81-0.355c15.996,0,29.063,12.553,29.063,28.516
			c0,9.43-4.924,17.992-11.811,23.399l-310.168,224.298l118.923,364.207c4.925,15.095-3.25,31.058-18.346,35.951
			c-9.815,3.283-20.502,0.772-27.775-5.407l-307.4-224.298l-309.396,225.553c-13.099,9.43-31.06,6.534-40.007-6.148
			c-5.762-7.789-7.016-17.605-4.152-25.651h-0.354l119.31-364.207L311.072,777.555c-13.067-9.302-15.964-27.293-6.534-39.974
			c6.147-8.561,15.448-12.714,25.265-11.812l380.943,0.355l117.668-364.207c4.925-15.096,20.889-23.271,35.951-18.732
			C873.796,346.436,880.329,353.354,883.226,362.045L883.226,362.045z M952.263,763.715l-96.426-299.579l-96.942,299.579
			c-3.636,11.812-14.579,19.987-27.293,19.987l-314.673-0.354l254.971,184.293c9.815,7.434,14.322,19.987,10.17,32.314
			l-97.552,299.096l253.715-185.066c9.815-7.402,23.752-7.788,34.309-0.385l254.231,185.451l-97.328-297.841
			c-4.505-11.941-0.74-25.781,9.817-33.569l255.485-184.293l-313.935,0.354C968.227,784.603,956.415,776.428,952.263,763.715
			L952.263,763.715z M952.263,763.715"/>
	</g>
</g>
</svg>
