<?xml version="1.0" encoding="utf-8"?>
<!-- Generator: Adobe Illustrator 21.0.0, SVG Export Plug-In . SVG Version: 6.00 Build 0)  -->
<svg version="1.1" id="Calque_1" xmlns="http://www.w3.org/2000/svg" xmlns:xlink="http://www.w3.org/1999/xlink" x="0px" y="0px"
	 viewBox="0 0 150 158" enable-background="new 0 0 150 158" xml:space="preserve">
<path fill="#006F74" d="M75.605,15.507c-35.1,0-63.554,28.454-63.554,63.554c0,8.601,1.718,16.798,4.814,24.28
	c4.019-6.56,9.588-12.131,17.324-16.315c-0.529-0.393-0.946-0.734-1.392-1.032c-8.718-5.807-12.88-16.281-10.117-26.295
	c2.927-10.61,10.354-16.278,20.94-18.193c1.689,0,3.377,0,5.066,0c0.391,0.128,0.774,0.315,1.175,0.375
	c7.954,1.188,14.585,6.288,17.981,13.168c-9.544,2.769-15.701,8.944-18.314,18.414c-2.841,10.297,1.223,21.285,10.127,27.589
	c-9.485,5.719-16.127,13.908-20.36,25.174c-6.414-3.449-12.203-7.782-17.171-12.821c4.2,6.527,9.564,12.232,15.795,16.829
	c0,0,0,0,0,0c0.001,0.001,0.003,0.002,0.004,0.003c0.849,0.626,1.717,1.228,2.597,1.812c0.042,0.028,0.081,0.058,0.123,0.086
	c0-0.001,0.001-0.002,0.001-0.003c10.03,6.622,22.044,10.482,34.962,10.482c12.15,0,23.499-3.415,33.151-9.329
	c0,0.002,0.001,0.003,0.001,0.005c0.066-0.04,0.128-0.085,0.193-0.126c0.63-0.389,1.252-0.789,1.867-1.199
	c0.021-0.014,0.043-0.027,0.064-0.041c-0.001,0-0.002,0-0.002,0c7.264-4.857,13.475-11.166,18.208-18.519
	c-5.43,5.506-11.852,10.153-18.986,13.74c-1.921-5.314-4.604-10.595-8.634-15.317c-2.73-3.198-5.943-5.987-9.051-8.685
	c-0.873-0.758-1.766-1.533-2.645-2.314c7.058-5.237,10.665-12.711,10.458-21.738c-0.24-10.472-7.173-19.724-16.798-23.288
	c3.546-8.118,10.347-12.634,19.549-14.298c1.689,0,3.377,0,5.066,0c0.391,0.128,0.774,0.315,1.175,0.375
	c11.442,1.709,20.162,11.505,20.427,23.064c0.221,9.668-4.179,16.871-11.414,21.538c4.355,4.015,9.184,7.681,13.028,12.186
	c1.184,1.388,2.248,2.835,3.218,4.327c3.007-7.389,4.678-15.465,4.678-23.935C139.159,43.962,110.705,15.507,75.605,15.507z
	 M97.079,79.166c0.196,8.562-3.502,15.539-10.693,20.177l-1.711,1.103l1.497,1.38c1.367,1.26,2.796,2.501,4.178,3.7
	c3.02,2.622,6.143,5.332,8.719,8.351c3.811,4.466,6.355,9.523,8.175,14.631c-9.561,4.309-20.29,6.746-31.64,6.746
	c-12.081,0-23.464-2.747-33.477-7.59c4.278-11.54,11.168-19.653,21.178-25.067l2.173-1.175l-1.982-1.475
	c-0.17-0.126-0.327-0.247-0.478-0.362c-0.329-0.252-0.64-0.49-0.982-0.717c-8.21-5.468-12.017-15.34-9.472-24.564
	c2.626-9.518,9.026-15.092,19.564-17.036h4.652c0.029,0.011,0.057,0.022,0.086,0.032c0.306,0.115,0.687,0.259,1.127,0.325
	C88.63,59.213,96.834,68.474,97.079,79.166z"/>
</svg>
