<?xml version="1.0" encoding="utf-8"?>
<!-- Generator: Adobe Illustrator 21.0.0, SVG Export Plug-In . SVG Version: 6.00 Build 0)  -->
<svg version="1.1" id="Calque_1" xmlns="http://www.w3.org/2000/svg" xmlns:xlink="http://www.w3.org/1999/xlink" x="0px" y="0px"
	 viewBox="0 0 150 158" enable-background="new 0 0 150 158" xml:space="preserve">
<g id="argument_x5F_couverture">
	<g>
		<path fill="#006F74" d="M101.866,127.819c-1.849-0.593-3.585-0.261-5.272-0.781c-1.889-0.582-4.225-2.993-6.052-2.957
			c-5.436,0.107-8.695,6.009-9.975,10.052c-1.055,3.331,1.069,3.046-2.599,4.537c-1.881,0.765-4.471,0.223-6.308-0.171
			c-1.287-0.276-4.67-0.69-5.596-1.409c-1.165-0.905-0.461-2.394-1.593-3.317c-4.035-3.292-5.933-1.971-9.59-2.072
			c-5.448-0.15-7.985-2.473-12.319-4.836c-1.863-1.016-3.511-1.603-4.968-2.92c-0.375-0.339,0.968-1.967,0.526-2.404
			c-1.011-0.998-2.611-0.229-3.817-1.749c3.301-0.677,4.16-5.83,5.25-8.606c0.821-2.088,1.287-4.071,2.006-6.155
			c0.388-1.126,2.535-0.451,2.553-1.55c0.025-1.519-2.323,0.01-2.074-2.001c0.17-1.379,1.764-9.208,3.021-9.337
			c1.604-0.165,2.236,3.819,2.832,4.744c2.189-0.531-2.083-5.863-2.246-6.346c-0.869-2.568,0.318-3.312-0.068-6.603
			c-0.532-4.534-6.881-6.682-8.238-12.712c3.182,0.723,0.3-2.083,2.104-3.802c-5-0.863-1.424-0.794-3.314-3.539
			c-1.179-1.713-2.952,0.395-2.097-2.516c-3.653-0.883-3.438-0.271-6.798-2.46c-1.758-1.145-4.092-1.217-5.453-2.039
			c-1.527-0.921-2.072-2.213-3.902-3.593C14.382,61.141,12.422,69.839,12.422,79c0,34.995,28.369,63.364,63.365,63.364
			c12.982,0,25.048-3.911,35.096-10.609C107.206,131.701,105.19,128.885,101.866,127.819z"/>
		<path fill="#006F74" d="M23.211,45.023c1.851-0.071,5.532-0.538,7.161-0.472c5.298,0.214,3.158,3.024,7.299,4.769
			c0.098,0.041,6.362-0.1,6.952-0.076c4.147,0.169,2.408,1.535,2.571-2.817c0.061-1.634-2.144-10.953-0.656-11.653
			c2.921-1.375,4.443,3.663,5.352,4.294c1.971,1.368,8.784,5.384,11.458,2.941c1.547-1.414-0.006-3.171,1.129-4.335
			c1.018-1.044,2.722-0.658,3.923-1.171c2.556-1.091,7.427-0.884,9.228-3.808c1.579-2.562-1.814-7.649,1.956-10.092
			c4.497-2.914,5.972,1.768,8.248,3.593c1.088,0.873,2.498-0.052,2.973,0.371c0.498,0.444,0.763,1.631,1.314,2.165
			c0.571,0.554,4.14,4.331,4.644,4.953c-0.475-0.588,3.241,3.556,2.238,2.875c2.385,1.617,3.925,3.508,5.254-0.889
			c1.231,0.925,0.458,3.883,1.331,5.329c0.266,0.44,4.577,3.523,4.888,3.678c2.202,1.095,5.849,0.261,7.784,1.541
			c1.697,1.122,1.401,2.843,3.068,3.851c2.177,1.316,11.074,0.875,11.696,3.293c0.593,2.306-1.786,2.161-2.495,3.642
			c-1.087,2.272-1.962,5.292-2.474,7.801c-0.326,1.601,0.06,6.582-1.077,7.738c-1.376,1.399-3.569-0.006-4.881,1.114
			c-0.625,0.533-1.944,4.08-2.56,5.083c-0.608,0.992-2.672,3.131-3.425,4.151c-1.949,2.641-6.682,8.068-1.781,7.573
			c0.442-0.045,0.544-2.514,1.5-2.924c4.933-2.113,3.041,1.057,3.58,3.64c0.276,1.325,1.603,0.926,1.644,2.72
			c0.021,0.918-1.811-0.673-1.556,2.105c0.092,1,1.334,1.845,1.469,2.653c0.724,4.323,0.833,2.186-0.621,5.018
			c-0.151,0.294-2.601,0.197-2.897,1.248c-0.641,2.278,2.936,2.687,3.214,4.209c0.35,1.913-2.212,4.2-1.466,6.313
			c1.062,3.007,5.5,2.089,6.318,2.798c8.53-10.794,13.636-24.419,13.636-39.245c0-34.995-28.369-63.364-63.365-63.364
			c-22.5,0-42.247,11.738-53.49,29.414C22.608,45.041,22.915,45.035,23.211,45.023z"/>
		<path fill="#006F74" d="M21.281,51.708c0.009-0.304-0.917-0.983-1.795-1.771c-0.402,0.777-0.791,1.562-1.161,2.357
			C19.349,52.025,21.251,52.745,21.281,51.708z"/>
	</g>
	<g id="E_OK_47_">
		<path fill="#006F74" d="M83.951,100.438c-10.978,1.187-20.057-7.453-20.062-16.885c-0.005-9.2,7.204-17.521,20.201-18.77
			c0.312-0.03,0.62-0.076,0.927-0.102c-2.177-0.808-4.534-1.236-6.997-1.199c-11.005,0.166-19.927,9.489-19.927,20.824
			s8.922,20.389,19.927,20.222c7.684-0.116,14.347-4.698,17.672-11.309C92.816,96.121,88.141,99.985,83.951,100.438z"/>
		<path fill="#006F74" d="M100.866,65.041c-0.728-3.899-7.577-8.373-16.096-7.04c-2.677,0.419-5.4,1.191-7.482,2.193
			c8.071-0.885,13.768,1.698,14.164,5.673c0.578,5.806-12.215,9.16-19.976,9.891c1.566,0.417,11.693,1.009,15.836,0.447
			C97.125,74.873,101.531,68.604,100.866,65.041z"/>
	</g>
</g>
</svg>
