<?xml version="1.0" encoding="utf-8"?>
<!-- Generator: Adobe Illustrator 21.0.0, SVG Export Plug-In . SVG Version: 6.00 Build 0)  -->
<svg version="1.1" id="Calque_1" xmlns="http://www.w3.org/2000/svg" xmlns:xlink="http://www.w3.org/1999/xlink" x="0px" y="0px"
	 viewBox="0 0 150 158" enable-background="new 0 0 150 158" xml:space="preserve">
<path fill="#006F74" d="M127.683,43.202c-1.886,1.688-3.79,3.359-5.572,5.151c-4.377,4.404-9.459,7.61-15.393,9.438
	c-2.912,0.897-5.885,1.102-8.864,0.398c-1.519-0.359-2.967-0.969-4.204-1.956c-0.465-0.371-0.787-0.288-1.247,0
	c-5.937,3.719-9.408,9.286-11.758,15.682c-1.226,3.336-2.104,6.771-2.859,10.238c2.322,0,4.643,0,6.965,0
	c2.079,0.683,2.787,2.208,2.636,4.271c-0.029,0.401-0.045,0.812,0.016,1.205c0.026,0.164,0.265,0.413,0.415,0.419
	c0.949,0.039,1.9,0.017,2.851,0.02c3.127,0.01,5.243,2.08,5.245,5.198c0.01,15.175,0.006,30.351-0.004,45.526
	c0,0.45-0.046,0.908-0.139,1.349c25.117-8.714,43.156-32.569,43.156-60.651C138.927,66.021,134.771,53.526,127.683,43.202z"/>
<path fill="#006F74" d="M42.987,27.861c2.705,0.239,5.425,0.359,8.117,0.699c4.908,0.62,9.443,2.212,13.149,5.649
	c3.712,3.441,5.821,7.654,5.875,12.773c0.017,1.603-0.128,3.214-1.082,4.786c-5.896-8.434-14.042-13.949-22.909-18.551
	c1.076,1.115,2.104,2.282,3.238,3.335c3.37,3.128,6.817,6.175,10.167,9.326c2.121,1.995,4.15,4.089,6.166,6.192
	c1.456,1.519,2.932,3.042,4.205,4.711c2.239,2.935,3.564,6.329,4.497,9.882c0.821,3.125,1.265,6.306,1.456,9.527
	c0.013,0.226,0.036,0.451,0.068,0.675c0.009,0.066,0.063,0.126,0.178,0.343c0.264-0.894,0.502-1.66,0.715-2.433
	c1.076-3.894,2.526-7.642,4.596-11.113c2.597-4.353,5.961-7.982,10.606-10.19c2.333-1.109,4.767-2.015,7.186-2.931
	c4.206-1.593,8.44-3.112,12.654-4.684c2.182-0.814,4.347-1.675,6.519-2.515c-0.017-0.085-0.035-0.171-0.052-0.256
	c-1.943,0.228-3.895,0.397-5.826,0.701c-1.96,0.308-3.912,0.697-5.845,1.145c-1.957,0.453-3.917,0.932-5.821,1.565
	c-1.878,0.624-3.718,1.388-5.517,2.216c-1.795,0.827-3.517,1.81-5.464,2.825c0.067-0.859,0.044-1.609,0.195-2.322
	c0.787-3.723,2.799-6.711,5.758-9.027c4.821-3.774,10.327-4.826,16.298-3.881c3.873,0.613,7.533,1.958,11.224,3.199
	c0.711,0.239,1.423,0.478,2.147,0.698C113.74,25.053,95.38,15.293,74.729,15.293c-13.881,0-26.722,4.42-37.224,11.91
	C39.3,27.635,41.152,27.699,42.987,27.861z"/>
<path fill="#006F74" d="M56.321,140.134c-0.208-1.043-0.136-2.148-0.137-3.225c-0.007-14.515-0.007-29.031-0.001-43.546
	c0.001-2.626,1.286-4.49,3.723-5.086c1.134-0.277,2.365-0.176,3.553-0.203c1.254-0.028,1.313-0.009,1.243-1.263
	c-0.121-2.146,0.33-3.918,2.645-4.658c1.981,0,3.962,0,5.943,0c-0.068-4.631-0.385-9.241-1.439-13.774
	c-0.896-3.855-2.348-7.484-4.691-10.703c-0.707-0.971-1.54-1.855-2.369-2.728c-0.193-0.203-0.631-0.331-0.909-0.272
	c-4.193,0.895-7.931-0.212-11.333-2.619c-4-2.83-7.219-6.414-9.538-10.721c-1.438-2.669-2.558-5.507-3.87-8.246
	c-0.837-1.747-1.74-3.461-2.625-5.185C20.751,39.604,10.531,58.352,10.531,79.49c0,29.161,19.45,53.765,46.08,61.588
	C56.492,140.784,56.389,140.475,56.321,140.134z"/>
<path fill="#006F74" d="M90.97,116.093c0-7.476-0.005-14.952,0.011-22.428c0.001-0.516-0.154-0.642-0.653-0.641
	c-9.49,0.014-18.98,0.016-28.47-0.003c-0.601-0.001-0.744,0.161-0.744,0.751c0.016,14.888,0.016,29.775,0,44.663
	c0,0.541,0.158,0.664,0.679,0.664c9.506-0.015,19.012-0.016,28.519,0.001c0.535,0.001,0.671-0.147,0.669-0.674
	C90.965,130.98,90.971,123.537,90.97,116.093z M65.745,111.161c6.877-0.026,13.753-0.026,20.63-0.001
	c0.173,0.001,0.493,0.315,0.495,0.485c0.031,2.931,0.03,5.862,0,8.793c-0.002,0.173-0.319,0.489-0.491,0.491
	c-3.446,0.029-6.893,0.022-10.339,0.022c-3.43,0-6.861,0.008-10.291-0.023c-0.182-0.002-0.517-0.331-0.519-0.51
	c-0.033-2.915-0.033-5.83,0-8.744C65.232,111.493,65.565,111.162,65.745,111.161z M86.902,135.152
	c0.003,0.455-0.145,0.563-0.581,0.562c-6.846-0.013-13.693-0.013-20.539-0.001c-0.428,0.001-0.588-0.094-0.585-0.556
	c0.02-2.916,0-5.831,0.033-8.747c0.002-0.18,0.339-0.508,0.523-0.51c3.431-0.031,6.862-0.023,10.293-0.023
	c3.415,0,6.83,0.007,10.245-0.01c0.452-0.002,0.614,0.104,0.61,0.586C86.881,129.353,86.883,132.253,86.902,135.152z"/>
</svg>
