<?xml version="1.0" encoding="utf-8"?>
<!-- Generator: Adobe Illustrator 21.0.0, SVG Export Plug-In . SVG Version: 6.00 Build 0)  -->
<svg version="1.1" id="Calque_1" xmlns="http://www.w3.org/2000/svg" xmlns:xlink="http://www.w3.org/1999/xlink" x="0px" y="0px"
	 viewBox="0 0 150 158" enable-background="new 0 0 150 158" xml:space="preserve">
<g>
	<g>
		<path fill="#006F74" d="M52.887,42.094c-6.664,1.08-13.301,4.318-19.912,10.953c-2.055-8.365-4.149-16.633-6.283-24.771
			C33.46,20.3,40.255,16.114,47.077,14.45C49.053,23.656,50.99,32.88,52.887,42.094z"/>
		<path fill="#006F74" d="M78.056,71.785c-6.559-1.688-13.092-2.801-19.598-2.106c-1.817-9.167-3.674-18.371-5.571-27.585
			c6.664-1.081,13.354-0.004,20.071,1.97C74.697,53.414,76.397,62.661,78.056,71.785z"/>
		<path fill="#006F74" d="M93.188,51.393c-6.77-2.486-13.513-5.356-20.23-7.329c-1.739-9.35-3.519-18.802-5.338-28.333
			c6.874,2.089,13.775,5.411,20.703,8.659C89.985,33.559,91.606,42.566,93.188,51.393z"/>
		<path fill="#006F74" d="M117.73,78.763c-6.665,1.046-13.304,0.14-19.916-1.443c-1.502-8.452-3.044-17.099-4.626-25.926
			c6.77,2.486,13.566,4.587,20.389,5.004C115.002,64.099,116.386,71.557,117.73,78.763z"/>
		<path fill="#006F74" d="M134.126,51.271c-6.876,4.274-13.726,5.543-20.549,5.126c-1.424-7.701-2.888-15.646-4.392-23.821
			c6.981,1.768,13.988,2.132,21.021-0.255C131.553,38.925,132.86,45.244,134.126,51.271z"/>
		<path fill="#006F74" d="M63.79,97.047c-6.349,0.497-12.671,2.467-18.966,7.097c-1.895-8.626-3.83-17.217-5.805-25.743
			c6.453-5.524,12.933-8.026,19.439-8.721C60.276,78.846,62.053,87.977,63.79,97.047z"/>
		<path fill="#006F74" d="M46.295,110.352c-0.478-2.128-0.958-4.254-1.441-6.377c31.326-23.179,63.307,20.609,95.942-19.56
			C108.45,125.715,76.949,85.981,46.295,110.352z"/>
		<path fill="#006F74" d="M102.2,102.074c-6.455-0.553-12.883-2.063-19.284-3.306c-1.58-8.858-3.199-17.859-4.859-26.983
			c6.559,1.687,13.145,3.95,19.757,5.534C99.316,85.771,100.778,94.027,102.2,102.074z"/>
		<path fill="#006F74" d="M141.246,83.902c-6.561,8.284-13.095,13.099-19.603,15.709c-1.265-6.691-2.569-13.643-3.913-20.848
			c6.665-1.047,13.357-4.045,20.076-10.289C138.993,73.914,140.14,79.057,141.246,83.902z"/>
	</g>
</g>
<path fill="#006F74" d="M33.785,143.37L33.785,143.37L15.329,45.9c-1.665-8.136-2.231-14.753,5.478-14.78
	c0,0,0.32,1.303,0.651,2.653l23.27,94.816C46.393,136.725,41.494,143.343,33.785,143.37z"/>
</svg>
