<?xml version="1.0" encoding="utf-8"?>
<!-- Generator: Adobe Illustrator 21.0.0, SVG Export Plug-In . SVG Version: 6.00 Build 0)  -->
<svg version="1.1" id="Calque_1" xmlns="http://www.w3.org/2000/svg" xmlns:xlink="http://www.w3.org/1999/xlink" x="0px" y="0px"
	 viewBox="0 0 150 158" enable-background="new 0 0 150 158" xml:space="preserve">
<rect x="37.886" y="68.368" fill="#FFFFFF" width="21.036" height="21.036"/>
<rect x="66.649" y="68.368" fill="#FFFFFF" width="21.036" height="21.036"/>
<rect x="94.554" y="68.368" fill="#FFFFFF" width="21.036" height="21.036"/>
<rect x="37.886" y="95.844" fill="#FFFFFF" width="21.036" height="21.036"/>
<rect x="66.649" y="95.844" fill="#FFFFFF" width="21.036" height="21.036"/>
<rect x="94.554" y="95.844" fill="#FFFFFF" width="21.036" height="21.036"/>
<path fill="#FFFFFF" d="M67.772,30.636v-4.451V13.311H55.678c-4.399,0-7.964,3.566-7.964,7.964v4.91V38.6h12.094
	C64.206,38.6,67.772,35.034,67.772,30.636z"/>
<path fill="#FFFFFF" d="M110.532,26.191v4.445c0,6.419-5.223,11.642-11.642,11.642H86.795h-3.678V38.6V26.185H71.45v4.451
	c0,6.419-5.223,11.642-11.642,11.642H47.713h-3.678V38.6V26.185h-25v91.262c0,13.589,11.016,24.605,24.604,24.605h91.262V50.789
	C134.901,37.28,124.011,26.318,110.532,26.191z M125.245,132.396h-79.9c-9.198,0-16.655-7.457-16.655-16.655V54.232h80.156
	c9.057,0,16.399,7.342,16.399,16.399V132.396z"/>
<path fill="#FFFFFF" d="M106.854,30.636v-4.451V13.311H94.76c-4.399,0-7.964,3.566-7.964,7.964v4.91V38.6H98.89
	C103.288,38.6,106.854,35.034,106.854,30.636z"/>
</svg>
