<?xml version="1.0" encoding="utf-8"?>
<!-- Generator: Adobe Illustrator 21.0.0, SVG Export Plug-In . SVG Version: 6.00 Build 0)  -->
<svg version="1.1" id="Calque_1" xmlns="http://www.w3.org/2000/svg" xmlns:xlink="http://www.w3.org/1999/xlink" x="0px" y="0px"
	 viewBox="0 0 150 158" enable-background="new 0 0 150 158" xml:space="preserve">
<path id="social_x5F_facebook" fill="#36b1ac" d="M82.68,15.937H12.116V86.5c0,30.686,24.876,55.562,55.562,55.562h0.037
	c0.012-0.157,0.022-0.314,0.022-0.472c0.004-18.406,0.004-36.811,0.004-55.217c0-0.395,0-0.789,0-1.312c-4.811,0-9.544,0-14.344,0
	c-0.022-0.453-0.052-0.782-0.052-1.111c-0.003-5.859,0.017-11.718-0.022-17.577c-0.006-0.91,0.286-1.128,1.152-1.12
	c4.049,0.04,8.099-0.008,12.147,0.035c0.905,0.01,1.134-0.294,1.134-1.161c0-4.969,0.001-9.939,0.109-14.906
	c0.078-3.573,0.701-7.068,2-10.423c1.826-4.715,5.095-8.009,9.897-9.54c2.489-0.794,5.137-1.093,7.715-1.607
	c0.449-0.09,0.906-0.136,1.36-0.202c6.013,0,12.027,0,18.04,0c0.018,1.501,0.051,3.002,0.053,4.504
	c0.007,4.661,0.003,9.322,0.003,13.983c0,0.391,0,0.782,0,1.24c-0.512,0.029-0.904,0.068-1.295,0.071
	c-3.342,0.025-6.685,0.007-10.026,0.085c-0.998,0.023-2.022,0.205-2.978,0.496c-2.046,0.621-3.168,2.117-3.247,4.405
	c-0.121,3.492-0.146,6.987-0.187,10.481c-0.03,2.553-0.012,2.554,2.53,2.554c4.661,0,9.322-0.001,13.983,0.002
	c0.39,0,0.78,0.034,1.31,0.058c-0.696,6.6-1.382,13.107-2.077,19.704c-5.27,0-10.435,0-15.677,0
	c-0.026,0.393-0.062,0.689-0.062,0.986c-0.007,18.682-0.011,37.363-0.014,56.045h49.05V71.499
	C138.241,40.813,113.365,15.937,82.68,15.937z"/>
</svg>
