<?xml version="1.0" encoding="utf-8"?>
<!-- Generator: Adobe Illustrator 21.0.0, SVG Export Plug-In . SVG Version: 6.00 Build 0)  -->
<svg version="1.1" id="Calque_1" xmlns="http://www.w3.org/2000/svg" xmlns:xlink="http://www.w3.org/1999/xlink" x="0px" y="0px"
	 viewBox="0 0 150 158" enable-background="new 0 0 150 158" xml:space="preserve">
<path fill="#FFFFFF" d="M71.584,113.696c4.406,1.466,9.166-0.917,10.632-5.322l1.139-3.422l0,0l1.055-3.17l6.247-18.77
	c0,0-4.423-0.355-8.158-1.714c-1.707-0.621-3.633-1.924-5.09-3.03l-2.25-1.934l-0.024,0.073l0,0l-8.872,26.657
	C64.796,107.47,67.179,112.23,71.584,113.696z"/>
<path fill="#FFFFFF" d="M106.825,19.306c-27.937-10.803-32.47,0.918-33.546,3.703c-1.077,2.784-1.376,6.373,3.48,16.336
	c4.856,9.963,1.206,33.479,1.206,33.479s1.214,2.491,6.423,4.505c5.208,2.014,7.782,0.988,7.782,0.988s14.068-19.488,23.417-23.957
	c9.349-4.47,12.603-7.254,13.604-9.842C130.192,41.93,134.762,30.109,106.825,19.306z M95.991,44.265
	c-10.059-4.384-17.036-11.837-18.23-18.587c4.797,5.673,11.856,10.904,20.418,14.636c8.024,3.497,16.113,5.13,23.207,5.035
	C115.533,48.679,105.692,48.493,95.991,44.265z"/>
<path fill="#FFFFFF" d="M116.466,111.845l-23.683-20.36L87.2,108.258l15.085,12.968c2.39,2.055,1.537,4.652-1.905,5.801
	l-17.764,5.929L38.044,94.638c-2.39-2.055-1.537-4.652,1.906-5.801l17.764-5.929l8.017,6.892l5.516-16.574L29.701,87.094
	c-10.327,3.447-12.886,11.238-5.716,17.402l45.005,38.689l41.76-13.939C121.077,125.799,123.636,118.009,116.466,111.845z"/>
</svg>
