<?xml version="1.0" encoding="utf-8"?>
<!-- Generator: Adobe Illustrator 21.0.0, SVG Export Plug-In . SVG Version: 6.00 Build 0)  -->
<svg version="1.1" id="Calque_1" xmlns="http://www.w3.org/2000/svg" xmlns:xlink="http://www.w3.org/1999/xlink" x="0px" y="0px"
	 viewBox="0 0 150 158" enable-background="new 0 0 150 158" xml:space="preserve">
<path id="social_x5F_linkedin" fill="#36b1ac" d="M82.68,15.937H12.116V86.5c0,30.686,24.876,55.562,55.562,55.562h70.563V71.499
	C138.241,40.813,113.365,15.937,82.68,15.937z M54.26,115.44c0,1.069-0.002,1.071-1.092,1.071c-5.578,0.001-11.156,0.001-16.733,0
	c-1.111,0-1.112-0.003-1.112-1.152c0-9.158,0-18.317,0-27.475c0-9.183,0-18.365,0-27.548c0-1.141,0.002-1.145,1.116-1.145
	c5.578-0.001,11.156-0.002,16.733,0c1.086,0,1.088,0.005,1.088,1.08C54.26,78.661,54.26,97.05,54.26,115.44z M55.34,43.062
	c-0.654,4.098-3.237,6.591-7.192,7.655c-1.093,0.294-2.245,0.374-3.369,0.553c-3.086-0.134-5.845-0.967-8.002-3.256
	c-4.702-4.991-3.06-14.26,4.908-16.15c3.374-0.801,6.679-0.596,9.616,1.388C54.767,35.594,55.982,39.042,55.34,43.062z
	 M123.248,115.469c0,1.039-0.001,1.042-1.043,1.043c-5.531,0.001-11.062,0.001-16.593,0c-1.364,0-1.366-0.001-1.366-1.336
	c-0.001-9.357,0.021-18.713-0.018-28.07c-0.008-1.917-0.174-3.84-0.393-5.746c-0.211-1.835-0.862-3.551-1.934-5.071
	c-1.802-2.555-4.388-3.547-7.403-3.519c-5.103,0.049-8.634,3.227-10.024,7.621c-0.479,1.515-0.479,3.221-0.486,4.841
	c-0.041,9.966-0.02,19.932-0.021,29.897c0,0.292,0.054,0.604-0.031,0.871c-0.062,0.197-0.286,0.375-0.481,0.488
	c-0.129,0.075-0.333,0.023-0.504,0.023c-5.653,0.001-11.306,0.001-16.959,0c-1.004,0-1.008-0.004-1.005-1.008
	c0.044-14.668,0.1-29.337,0.126-44.005c0.007-3.801-0.065-7.602-0.139-11.402c-0.014-0.704,0.202-0.921,0.904-0.918
	c5.726,0.023,11.452,0.022,17.178,0.001c0.696-0.003,0.935,0.217,0.923,0.921c-0.037,2.07-0.014,4.142-0.009,6.213
	c0.001,0.253,0.036,0.505,0.055,0.758c0.058,0.015,0.116,0.029,0.175,0.044c0.193-0.268,0.393-0.531,0.579-0.804
	c3.726-5.476,8.944-8.251,15.521-8.474c3.82-0.13,7.522,0.462,11.008,2.133c2.992,1.434,5.42,3.526,7.3,6.243
	c2.497,3.609,3.779,7.678,4.229,11.996c0.27,2.587,0.382,5.2,0.394,7.802C123.275,95.829,123.248,105.649,123.248,115.469z"/>
</svg>
