<?xml version="1.0" encoding="utf-8"?>
<!-- Generator: Adobe Illustrator 21.0.0, SVG Export Plug-In . SVG Version: 6.00 Build 0)  -->
<svg version="1.1" id="Calque_1" xmlns="http://www.w3.org/2000/svg" xmlns:xlink="http://www.w3.org/1999/xlink" x="0px" y="0px"
	 viewBox="0 0 150 158" enable-background="new 0 0 150 158" xml:space="preserve">
<g>
	<path fill="#006F74" d="M55.089,133.885c0.484-0.113,0.858-0.2,1.232-0.287c5.415-1.263,10.828-2.535,16.248-3.775
		c0.681-0.156,1.105-0.45,1.456-1.084c3.212-5.804,3.965-12.06,3.356-18.532c-0.224-2.382-0.768-4.736-1.215-7.094
		c-0.061-0.322-0.342-0.717-0.63-0.864c-2.288-1.169-4.601-2.287-6.908-3.419c-0.125-0.061-0.259-0.104-0.53-0.211
		c-0.134,0.511-0.295,0.969-0.368,1.44c-0.114,0.731-0.431,0.962-1.169,0.713c-3.324-1.122-6.698-2.107-9.982-3.335
		c-6.529-2.442-12.764-5.509-18.536-9.44c-6.163-4.197-11.683-9.08-15.198-15.795c-2.848-5.443-4.442-11.228-3.19-17.424
		c0.912-4.516,3.828-7.347,8.188-8.673c3.854-1.172,7.779-1.097,11.715-0.452c0.459,0.075,0.921,0.139,1.383,0.194
		c0.096,0.011,0.2-0.042,0.358-0.079c-0.011-0.224-0.002-0.43-0.035-0.63c-0.302-1.842-0.304-1.841,1.468-2.254
		c15.967-3.72,31.934-7.44,47.9-11.159c1.698-0.396,1.697-0.396,2.18,1.3c0.058,0.204,0.136,0.402,0.267,0.783
		c0.522-0.332,0.997-0.601,1.437-0.919c3.144-2.271,6.534-3.997,10.371-4.76c5.649-1.124,10.831,1.465,13.346,6.666
		c3.461,7.158,3.952,14.574,1.941,22.206c-2.184,8.29-6.454,15.494-11.584,22.255c-3.909,5.152-8.301,9.856-13.059,14.226
		c-0.445,0.409-0.905,0.801-1.457,1.288c-0.561-0.606-1.079-1.166-1.714-1.851c-0.34,0.504-0.607,0.95-0.923,1.358
		c-1.289,1.665-2.615,3.302-3.875,4.989c-0.256,0.343-0.472,0.897-0.389,1.286c1.549,7.296,4.5,13.9,9.852,19.239
		c1.132,1.13,2.472,2.062,3.777,3.002c0.306,0.22,0.882,0.215,1.29,0.122c5.386-1.228,10.765-2.49,16.145-3.743
		c0.417-0.097,0.835-0.194,1.429-0.333c0.247,1.061,0.456,1.956,0.635,2.73c11.885-11.768,19.253-28.091,19.253-46.138
		c0-35.862-29.072-64.934-64.934-64.934c-35.862,0-64.934,29.072-64.934,64.934c0,29.374,19.509,54.18,46.274,62.199
		C55.732,136.649,55.452,135.445,55.089,133.885z M40.251,37.769c2.939-1.566,5.953-2.999,8.835-4.663
		c1.943-1.122,3.724-2.529,5.537-3.865c0.421-0.31,0.676-0.846,1.176-1.496c-0.56,0.042-0.805,0.018-1.023,0.084
		c-0.625,0.19-0.83-0.125-0.941-0.669c-0.229-1.124-0.492-2.242-0.741-3.362c6.57-1.531,13.139-3.061,19.709-4.592
		c0.219,0.869,0.429,1.74,0.659,2.606c0.251,0.945,0.644,1.945-1.249,1.85c0.053,0.124,0.106,0.247,0.159,0.371
		c0.494,0.25,0.964,0.619,1.487,0.73c1.784,0.377,3.577,0.838,5.386,0.949c3.608,0.221,7.229,0.261,10.846,0.31
		c0.871,0.012,1.405,0.143,1.517,1.138c0.095,0.839,0.366,1.658,0.567,2.523c-17.33,4.037-34.508,8.039-51.819,12.072
		c-0.254-1.089-0.544-2.12-0.702-3.172C39.617,38.341,39.973,37.917,40.251,37.769z"/>
	<path fill="#006F74" d="M32.741,50.454c-1.196,0.005-2.426,0.294-3.579,0.652c-3.241,1.006-4.677,3.441-4.737,6.673
		c-0.104,5.611,1.719,10.661,4.971,15.164c4.106,5.684,9.544,9.907,15.623,13.234c4.293,2.35,8.813,4.291,13.265,6.344
		c1.374,0.634,2.856,1.035,4.288,1.543c-9.637-10.605-14.707-23.441-18.541-36.91c-0.092,0.02-0.183,0.04-0.275,0.06
		c-0.8,2.509-1.599,5.018-2.426,7.613c-1.688-0.529-3.28-1.028-4.929-1.545c1.292-4.133,2.549-8.152,3.911-12.51
		C37.648,50.647,35.194,50.444,32.741,50.454z"/>
	<path fill="#006F74" d="M95.931,85.846c2.72-3.133,5.506-6.211,8.132-9.422c4.525-5.534,8.129-11.611,10.404-18.43
		c2.238-6.704,2.423-13.389-0.422-19.951c-1.73-3.992-4.447-5.819-9.016-4.679c-3.197,0.798-5.92,2.487-8.665,4.586
		c2.982,3.132,5.885,6.18,8.851,9.296c-1.267,1.211-2.471,2.36-3.735,3.568c-1.903-1.979-3.721-3.869-5.538-5.76
		c-0.091,0.032-0.181,0.064-0.271,0.096c2.526,13.771,3.648,27.522-0.621,41.479C95.52,86.215,95.751,86.053,95.931,85.846z"/>
</g>
<g>
	<path fill="#006F74" d="M80.858,78.243c-8.41,3.13-17.289-1.861-19.178-9.289c-1.843-7.246,2.172-15.241,12.16-18.824
		c0.24-0.086,0.473-0.184,0.71-0.266c-1.877-0.201-3.819-0.067-5.751,0.455C60.163,52.65,55,61.777,57.266,70.705
		S68.37,84.981,77.005,82.65c6.029-1.628,10.362-6.569,11.659-12.441C86.978,73.07,84.068,77.048,80.858,78.243z"/>
	<path fill="#006F74" d="M79.855,49.511c1.616,4.458-7.79,9.657-13.757,11.785c1.317,0.016,9.412-1.543,12.564-2.814
		c7.463-3.01,9.681-8.829,8.445-11.503c-1.353-2.926-7.642-5.08-14.087-2.328c-2.025,0.865-4.016,2.017-5.455,3.223
		C73.744,45.564,78.748,46.459,79.855,49.511z"/>
</g>
</svg>
