<?xml version="1.0" encoding="utf-8"?>
<!-- Generator: Adobe Illustrator 21.0.0, SVG Export Plug-In . SVG Version: 6.00 Build 0)  -->
<svg version="1.1" id="Calque_1" xmlns="http://www.w3.org/2000/svg" xmlns:xlink="http://www.w3.org/1999/xlink" x="0px" y="0px"
	 viewBox="0 0 150 158" enable-background="new 0 0 150 158" xml:space="preserve">
<g id="parrainage_x5F_nouveau_x5F_compte">
	<g>
		<path fill="#006F74" d="M41.656,128.305c-0.582-1.392-1.215-2.766-1.722-4.185c-0.279-0.779-0.729-1.009-1.504-1.063
			c-2.602-0.746-7.787-2.554-12.264-2.998c5.251,6.372,11.703,11.718,19.011,15.689C43.974,133.001,42.815,131.076,41.656,128.305z"
			/>
		<path fill="#006F74" d="M75.865,14.78c-35.551,0-64.37,28.82-64.37,64.37c0,15.126,5.231,29.023,13.965,40.011
			c1.749-2.101,5.96-6.976,12.405-15.273c0.186-0.239,0.392-0.462,0.645-0.758c1.068,1.942,2.885,2.582,4.81,3.082
			c1.091,0.284,2.173,0.622,3.229,1.017c2.085,0.78,3.594,2.226,4.584,4.208c0.582,1.165,1.122,2.351,1.696,3.52
			c0.994,2.023,2.579,3.337,4.761,3.928c0.226,0.061,0.439,0.167,0.787,0.301c-8.054,10.832-4.813,6.336-12.632,16.851
			c8.989,4.77,19.237,7.482,30.122,7.482c3.056,0,6.058-0.228,9.001-0.64c-4.184-11.925-2.636-6.518-7.218-19.648
			c0.38,0.034,0.632,0.038,0.878,0.081c3.678,0.643,7.014-0.366,9.325-3.129c2.68-3.203,6.024-3.761,9.756-3.703
			c1.198,0.019,2.395,0.171,3.592,0.164c0.641-0.004,0.897,0.224,1.077,0.809c2.136,6.921,3.469,12.35,5.154,17.789
			c19.577-11.04,32.805-32.016,32.805-56.094C140.235,43.6,111.416,14.78,75.865,14.78z M121.032,74.094
			c-0.859,1.194-1.765,2.375-2.452,3.668c-1.325,2.493-1.505,5.169-0.861,7.904c0.181,0.768,0.392,1.528,0.589,2.292
			c0.927,3.592-0.372,6.302-3.768,7.772c-2.049,0.887-4.105,1.738-5.7,3.394c-1.488,1.545-2.465,3.357-3.011,5.419
			c-0.219,0.828-0.434,1.66-0.701,2.474c-0.993,3.031-3.586,4.61-6.806,4.19c-2.107-0.274-4.209-0.565-6.33-0.035
			c-2.19,0.548-4.057,1.63-5.646,3.215c-0.534,0.533-1.057,1.077-1.601,1.6c-2.468,2.368-5.441,2.576-8.221,0.588
			c-0.975-0.697-1.919-1.445-2.937-2.073c-2.807-1.731-5.832-2.071-9.007-1.27c-0.698,0.176-1.394,0.36-2.091,0.538
			c-3.58,0.917-6.186-0.368-7.697-3.721c-0.66-1.464-1.306-2.963-2.186-4.296c-1.915-2.901-4.898-4.148-8.152-4.918
			c-3.804-0.899-5.447-3.302-5.094-7.229c0.144-1.599,0.283-3.218,0.188-4.814c-0.163-2.712-1.428-4.976-3.292-6.913
			c-0.547-0.568-1.131-1.1-1.675-1.671c-2.399-2.521-2.6-5.48-0.579-8.312c0.717-1.004,1.499-1.971,2.129-3.027
			c1.666-2.792,2-5.787,1.186-8.926c-0.267-1.027-0.576-2.054-0.721-3.101c-0.419-3.028,0.848-5.273,3.654-6.541
			c2.061-0.931,4.184-1.729,5.841-3.372c1.577-1.564,2.601-3.424,3.176-5.553c0.25-0.926,0.452-1.877,0.81-2.761
			c1.242-3.062,3.651-4.397,6.978-3.917c2.114,0.305,4.216,0.493,6.326-0.063c2.009-0.53,3.719-1.558,5.208-2.981
			c0.396-0.379,0.793-0.76,1.162-1.165c1.391-1.529,3.076-2.472,5.162-2.637c0.607,0.117,1.213,0.234,1.82,0.351
			c1.377,0.936,2.748,1.882,4.133,2.806c2.01,1.34,4.222,2.245,6.64,2c2.492-0.253,4.949-0.852,7.422-1.3
			c0.606,0.117,1.213,0.234,1.819,0.351c2.219,1.029,3.317,2.955,4.146,5.12c1.096,2.864,2.919,5.133,5.722,6.457
			c1.228,0.58,2.557,0.986,3.878,1.323c3.908,0.996,5.591,3.239,5.255,7.232c-0.183,2.184-0.524,4.35,0.069,6.537
			c0.554,2.044,1.592,3.778,3.041,5.289c0.522,0.544,1.066,1.067,1.592,1.608C122.934,68.188,123.126,71.185,121.032,74.094z"/>
		<path fill="#006F74" d="M92.427,132.81c-1.954,3.257-3.995,6.475-6.116,9.854c7.099-1.159,13.809-3.473,19.926-6.754
			c-3.874-1.268-7.752-2.521-11.605-3.85C93.579,131.697,93.032,131.802,92.427,132.81z"/>
		<path fill="#006F74" d="M82.372,47.637c-13.957-2.689-27.476,6.578-30.091,20.468c-2.631,13.974,6.533,27.509,20.405,30.14
			c13.998,2.655,27.538-6.547,30.136-20.519C105.435,63.672,96.394,50.338,82.372,47.637z M71.816,92.668
			c-9.007-1.595-14.864-10.386-13.082-19.636s10.529-15.455,19.536-13.86c2.015,0.357,3.871,1.076,5.521,2.078
			c-0.255-0.027-0.513-0.038-0.773-0.062c-10.803-1.025-17.994,4.632-19.437,12.141c-1.479,7.698,4.571,16.176,13.716,16.934
			c3.491,0.289,7.913-2.128,10.718-4.045C84.263,91.09,78.105,93.782,71.816,92.668z M83.853,71.015
			C80.383,70.822,72.212,68.747,71,68.16c6.448,0.624,17.416-0.102,17.857-4.93c0.302-3.306-3.942-6.31-10.667-6.857
			c1.857-0.49,4.2-0.692,6.451-0.613c7.162,0.252,12.048,4.98,12.029,8.277C96.651,67.049,92.069,71.471,83.853,71.015z"/>
	</g>
</g>
</svg>
