<?xml version="1.0" encoding="utf-8"?>
<!-- Generator: Adobe Illustrator 21.0.0, SVG Export Plug-In . SVG Version: 6.00 Build 0)  -->
<svg version="1.1" id="Calque_1" xmlns="http://www.w3.org/2000/svg" xmlns:xlink="http://www.w3.org/1999/xlink" x="0px" y="0px"
	 viewBox="0 0 150 158" enable-background="new 0 0 150 158" xml:space="preserve">
<g>
	<path fill="#FFFFFF" d="M100.356,53.912c-8.241,0-14.946-6.705-14.946-14.946V14.897H47.206c-11.383,0-20.611,9.228-20.611,20.611
		v106.334h49.716l-24.797-24.542h9.458V99.915h30.678v17.384h9.458l-24.797,24.542h27.502c11.383,0,20.611-9.228,20.611-20.611
		V53.912H100.356z M56.467,79.862c-2.053,1.883-4.948,2.825-8.685,2.825h-6.499v8.75h-5.691V61.705h12.19
		c3.737,0,6.632,0.892,8.685,2.676c2.053,1.784,3.079,4.304,3.079,7.56C59.547,75.339,58.52,77.98,56.467,79.862z M90.105,84.237
		c-1.345,2.251-3.207,4.014-5.585,5.288c-2.378,1.274-5.083,1.911-8.112,1.911H64.261V61.705H76.62c2.974,0,5.634,0.631,7.985,1.89
		c2.35,1.26,4.19,3.023,5.521,5.288c1.331,2.266,1.997,4.828,1.997,7.687C92.123,79.431,91.45,81.986,90.105,84.237z
		 M117.564,66.674h-14.781v8.027h13.464v4.969h-13.464v11.765h-5.691V61.705h20.515L117.564,66.674z"/>
	<path fill="#FFFFFF" d="M81.526,67.97c-1.487-0.835-3.15-1.253-4.991-1.253h-6.583v19.707h6.796c1.812,0,3.447-0.417,4.906-1.253
		c1.458-0.835,2.598-1.997,3.419-3.483c0.821-1.487,1.232-3.178,1.232-5.075c0-1.896-0.425-3.603-1.274-5.118
		C84.181,69.981,83.013,68.805,81.526,67.97z"/>
	<path fill="#FFFFFF" d="M47.484,66.674h-6.201v11h6.201c2.151,0,3.801-0.467,4.948-1.402c1.147-0.934,1.72-2.321,1.72-4.162
		c0-1.812-0.573-3.171-1.72-4.077C51.285,67.128,49.636,66.674,47.484,66.674z"/>
</g>
<path fill="#FFFFFF" d="M100.356,48.089h24.069V46.98L92.342,14.897h-1.109v24.069C91.233,43.996,95.325,48.089,100.356,48.089z"/>
</svg>
