<?xml version="1.0" encoding="utf-8"?>
<!-- Generator: Adobe Illustrator 21.0.0, SVG Export Plug-In . SVG Version: 6.00 Build 0)  -->
<svg version="1.1" id="Calque_1" xmlns="http://www.w3.org/2000/svg" xmlns:xlink="http://www.w3.org/1999/xlink" x="0px" y="0px"
	 viewBox="0 0 150 158" enable-background="new 0 0 150 158" xml:space="preserve">
<path fill="#006F74" d="M47.505,37.282c-3.783-4.848-11.625-5.052-17.515-0.456s-7.598,12.252-3.815,17.1L47.505,37.282z"/>
<path fill="#006F74" d="M120.637,61.38c-0.231-0.348-0.475-0.684-0.713-1.025c-0.242-0.344-0.477-0.69-0.728-1.029
	c-9.044-12.303-22.792-19.945-37.484-21.586v-5.232h4.304c7.129,0,12.908-5.779,12.908-12.908v-3.863H61.519
	c-7.129,0-12.908,5.779-12.908,12.908v3.863h15.888v6.088c-3.893,0.839-7.751,2.122-11.507,3.882
	C42.134,47.567,35.148,53.957,28.483,65.67c-5.404,10.414-5.404,16.449-5.81,17.717c0,0,9.839-18.672,19.915-25.389
	C64.199,43.593,88.95,46.147,105,62.197c2.743,2.743,4.981,5.796,6.787,9.027c0.356,0.656,0.712,1.312,1.04,1.991
	c0.18,0.369,0.349,0.743,0.517,1.116c0.425,0.943,0.815,1.892,1.163,2.849c0.118,0.324,0.231,0.649,0.341,0.975
	c0.329,0.98,0.619,1.965,0.87,2.954c0.081,0.32,0.161,0.639,0.234,0.96c0.234,1.025,0.427,2.053,0.58,3.083
	c0.041,0.271,0.082,0.542,0.117,0.814c0.145,1.133,0.246,2.268,0.296,3.4c0.007,0.142,0.015,0.284,0.02,0.426
	c0.532,15.969-8.303,31.503-23.663,38.701c-17.867,8.373-38.74,2.734-50.223-12.381l7.47-3.992l-11.676-6.101l-11.676-6.101
	l-1.415,13.098l-1.415,13.098l7.424-3.968c3.391,4.832,7.487,8.982,12.087,12.367l-0.037,0.037
	c21.059,15.628,51.028,13.904,70.114-5.182C132.409,110.915,134.631,82.291,120.637,61.38z"/>
<path fill="#006F74" d="M110.899,92.057c0-20.649-16.992-37.641-37.641-37.641v37.641l34.706,14.573
	C109.901,102.016,110.899,97.062,110.899,92.057z"/>
</svg>
