<?xml version="1.0" encoding="utf-8"?>
<!-- Generator: Adobe Illustrator 21.0.0, SVG Export Plug-In . SVG Version: 6.00 Build 0)  -->
<svg version="1.1" id="Calque_1" xmlns="http://www.w3.org/2000/svg" xmlns:xlink="http://www.w3.org/1999/xlink" x="0px" y="0px"
	 viewBox="0 0 150 158" enable-background="new 0 0 150 158" xml:space="preserve">
<g id="social_x5F_twitter">
	<path fill="#36b1ac" d="M52.265,104.552c-0.423-0.133-0.609-0.233-0.801-0.247c-3.75-0.261-7.276-1.275-10.503-3.215
		c-4.411-2.652-7.6-6.372-9.514-11.159c-0.408-1.021-0.269-1.16,0.853-1.04c2.6,0.28,5.181,0.174,7.742-0.364
		c0.208-0.044,0.413-0.108,0.615-0.175c0.084-0.028,0.158-0.087,0.272-0.287c-5.182-1.327-9.576-3.856-12.903-8.012
		c-3.303-4.126-5.123-8.799-5.028-14.332c3.216,1.477,6.344,2.619,9.909,2.386c-4.589-3.565-7.916-7.992-9.182-13.666
		c-1.261-5.651-0.693-11.135,2.187-16.237c0.16-0.103,0.32-0.207,0.48-0.31c0.257,0.413,0.465,0.867,0.778,1.232
		c4.726,5.531,10.263,10.111,16.519,13.798c3.476,2.048,7.142,3.717,10.961,5.063c4.689,1.654,9.476,2.826,14.419,3.355
		c1.002,0.107,2.006,0.212,3.012,0.262c1.183,0.059,1.364-0.167,1.198-1.317c-0.131-0.905-0.343-1.808-0.376-2.717
		c-0.245-6.69,1.89-12.53,6.605-17.286c3.796-3.829,8.425-6.072,13.865-6.565c4.402-0.4,8.63,0.197,12.513,2.317
		c1.935,1.057,3.691,2.468,5.428,3.845c0.741,0.587,1.37,0.883,2.307,0.656c4.158-1.006,8.149-2.437,11.895-4.521
		c-10.189-12.47-25.686-20.432-43.045-20.432H11.909v70.563c0,10.279,2.795,19.905,7.661,28.163
		C31.745,115.057,42.551,112.025,52.265,104.552z"/>
	<path fill="#36b1ac" d="M126.111,36.752c-1.804,4.66-5.075,8.007-8.979,10.906c4.101-0.101,7.863-1.501,11.663-2.73
		c0.065,0.094,0.13,0.187,0.195,0.281c-0.489,0.709-0.937,1.45-1.474,2.12c-2.361,2.943-5.021,5.59-8.062,7.831
		c-0.768,0.566-1.022,1.191-1.001,2.165c0.136,6.327-0.609,12.549-2.286,18.666c-1.683,6.142-4.182,11.929-7.442,17.382
		c-3.442,5.756-7.687,10.873-12.745,15.282c-7.38,6.432-15.81,10.884-25.317,13.296c-4.579,1.162-9.208,1.801-13.93,2.027
		c-4.201,0.201-8.383,0.065-12.518-0.521c-5.853-0.829-11.554-2.365-16.938-4.866c-2.516-1.168-4.935-2.543-7.397-3.828
		c-0.021-0.011-0.042-0.024-0.062-0.036c9.716,16.164,27.42,26.98,47.653,26.98h70.563V71.145
		C138.034,58.158,133.577,46.212,126.111,36.752z"/>
</g>
</svg>
